<?xml version="1.0" encoding="UTF-8"?>
<svg id="_图层_1" data-name="图层 1" xmlns="http://www.w3.org/2000/svg" xmlns:xlink="http://www.w3.org/1999/xlink" viewBox="0 0 658.02 210">
  <defs>
    <style>
      .cls-1 {
        fill: none;
      }

      .cls-2 {
        fill: #f700ff;
      }

      .cls-3 {
        fill: #fc00ff;
      }

      .cls-4 {
        fill: #fb00ff;
      }

      .cls-5 {
        fill: #fa00ff;
      }

      .cls-6 {
        fill: #0400ff;
      }

      .cls-7 {
        fill: #0100ff;
      }

      .cls-8 {
        fill: #0300ff;
      }

      .cls-9 {
        fill: #0500ff;
      }

      .cls-10 {
        fill: #6a00ff;
      }

      .cls-11 {
        fill: #6800ff;
      }

      .cls-12 {
        fill: #6b00ff;
      }

      .cls-13 {
        fill: blue;
      }

      .cls-14 {
        fill: #ef00ff;
      }

      .cls-15 {
        fill: #f400ff;
      }

      .cls-16 {
        fill: #f800ff;
      }

      .cls-17 {
        fill: #ed00ff;
      }

      .cls-18 {
        fill: #f600ff;
      }

      .cls-19 {
        fill: #fe00ff;
      }

      .cls-20 {
        fill: #eb00ff;
      }

      .cls-21 {
        fill: #ea00ff;
      }

      .cls-22 {
        fill: #e700ff;
      }

      .cls-23 {
        fill: #e600ff;
      }

      .cls-24 {
        fill: #e0f;
      }

      .cls-25 {
        fill: #f200ff;
      }

      .cls-26 {
        fill: #f0f;
      }

      .cls-27 {
        fill: #e900ff;
      }

      .cls-28 {
        fill: #f000ff;
      }

      .cls-29 {
        fill: #f300ff;
      }

      .cls-30 {
        fill: #8000ff;
      }

      .cls-31 {
        fill: #8100ff;
      }

      .cls-32 {
        fill: #60f;
      }

      .cls-33 {
        fill: #8300ff;
      }

      .cls-34 {
        fill: #7f00ff;
      }

      .cls-35 {
        fill: #7400ff;
      }

      .cls-36 {
        fill: #9b00ff;
      }

      .cls-37 {
        fill: #7e00ff;
      }

      .cls-38 {
        fill: #90f;
      }

      .cls-39 {
        fill: #6c00ff;
      }

      .cls-40 {
        fill: #8d00ff;
      }

      .cls-41 {
        fill: #a100ff;
      }

      .cls-42 {
        fill: #80f;
      }

      .cls-43 {
        fill: #8700ff;
      }

      .cls-44 {
        fill: #9400ff;
      }

      .cls-45 {
        fill: #8c00ff;
      }

      .cls-46 {
        fill: #b800ff;
      }

      .cls-47 {
        fill: #a000ff;
      }

      .cls-48 {
        fill: #9f00ff;
      }

      .cls-49 {
        fill: #a300ff;
      }

      .cls-50 {
        fill: #8f00ff;
      }

      .cls-51 {
        fill: #9500ff;
      }

      .cls-52 {
        fill: #c500ff;
      }

      .cls-53 {
        fill: #9000ff;
      }

      .cls-54 {
        fill: #9300ff;
      }

      .cls-55 {
        fill: #c400ff;
      }

      .cls-56 {
        fill: #b600ff;
      }

      .cls-57 {
        fill: #b900ff;
      }

      .cls-58 {
        fill: #6700ff;
      }

      .cls-59 {
        fill: #3400ff;
      }

      .cls-60 {
        fill: #bd00ff;
      }

      .cls-61 {
        fill: #3100ff;
      }

      .cls-62 {
        fill: #bc00ff;
      }

      .cls-63 {
        fill: #9100ff;
      }

      .cls-64 {
        fill: #ba00ff;
      }

      .cls-65 {
        fill: #d100ff;
      }

      .cls-66 {
        fill: #d200ff;
      }

      .cls-67 {
        fill: #b000ff;
      }

      .cls-68 {
        fill: #a900ff;
      }

      .cls-69 {
        fill: #a0f;
      }

      .cls-70 {
        fill: #b400ff;
      }

      .cls-71 {
        fill: #ad00ff;
      }

      .cls-72 {
        fill: #b100ff;
      }

      .cls-73 {
        fill: #b200ff;
      }

      .cls-74 {
        fill: #db00ff;
      }

      .cls-75 {
        fill: #b500ff;
      }

      .cls-76 {
        fill: #be00ff;
      }

      .cls-77 {
        fill: #c000ff;
      }

      .cls-78 {
        fill: #a600ff;
      }

      .cls-79 {
        fill: #a800ff;
      }

      .cls-80 {
        fill: #c100ff;
      }

      .cls-81 {
        fill: #c200ff;
      }

      .cls-82 {
        fill: #ac00ff;
      }

      .cls-83 {
        fill: #cf00ff;
      }

      .cls-84 {
        fill: #cd00ff;
      }

      .cls-85 {
        fill: #d300ff;
      }

      .cls-86 {
        fill: #e100ff;
      }

      .cls-87 {
        fill: #ce00ff;
      }

      .cls-88 {
        fill: #d500ff;
      }

      .cls-89 {
        fill: #e500ff;
      }

      .cls-90 {
        fill: #c600ff;
      }

      .cls-91 {
        fill: #c800ff;
      }

      .cls-92 {
        fill: #c900ff;
      }

      .cls-93 {
        fill: #d700ff;
      }

      .cls-94 {
        fill: #df00ff;
      }

      .cls-95 {
        fill: #d0f;
      }

      .cls-96 {
        fill: #da00ff;
      }

      .cls-97 {
        fill: #ae00ff;
      }

      .cls-98 {
        fill: #d600ff;
      }

      .cls-99 {
        fill: #de00ff;
      }

      .cls-100 {
        fill: #e200ff;
      }

      .cls-101 {
        fill: #cb00ff;
      }

      .cls-102 {
        fill: #ca00ff;
      }

      .cls-103 {
        fill: #e300ff;
      }

      .cls-104 {
        fill: #d900ff;
      }

      .cls-105 {
        fill: #1400ff;
      }

      .cls-106 {
        fill: #1200ff;
      }

      .cls-107 {
        fill: #10f;
      }

      .cls-108 {
        fill: #20f;
      }

      .cls-109 {
        fill: #1900ff;
      }

      .cls-110 {
        fill: #1800ff;
      }

      .cls-111 {
        fill: #2600ff;
      }

      .cls-112 {
        fill: #2100ff;
      }

      .cls-113 {
        fill: #2000ff;
      }

      .cls-114 {
        fill: #2500ff;
      }

      .cls-115 {
        fill: #2400ff;
      }

      .cls-116 {
        fill: #0c00ff;
      }

      .cls-117 {
        fill: #0b00ff;
      }

      .cls-118 {
        fill: #4300ff;
      }

      .cls-119 {
        fill: #4100ff;
      }

      .cls-120 {
        fill: #4200ff;
      }

      .cls-121 {
        fill: #0900ff;
      }

      .cls-122 {
        fill: #0800ff;
      }

      .cls-123 {
        fill: #1500ff;
      }

      .cls-124 {
        fill: #0700ff;
      }

      .cls-125 {
        fill: #1600ff;
      }

      .cls-126 {
        fill: #0d00ff;
      }

      .cls-127 {
        fill: #1a00ff;
      }

      .cls-128 {
        fill: #1000ff;
      }

      .cls-129 {
        fill: #0f00ff;
      }

      .cls-130 {
        fill: #1e00ff;
      }

      .cls-131 {
        fill: #3700ff;
      }

      .cls-132 {
        fill: #4500ff;
      }

      .cls-133 {
        fill: #4600ff;
      }

      .cls-134 {
        fill: #1c00ff;
      }

      .cls-135 {
        fill: #3f00ff;
      }

      .cls-136 {
        fill: #1d00ff;
      }

      .cls-137 {
        fill: #a500ff;
      }

      .cls-138 {
        fill: #6f00ff;
      }

      .cls-139 {
        fill: #a400ff;
      }

      .cls-140 {
        fill: #9700ff;
      }

      .cls-141 {
        fill: #7300ff;
      }

      .cls-142 {
        fill: #7000ff;
      }

      .cls-143 {
        fill: #9800ff;
      }

      .cls-144 {
        fill: #5600ff;
      }

      .cls-145 {
        fill: #50f;
      }

      .cls-146 {
        fill: #9c00ff;
      }

      .cls-147 {
        fill: #8b00ff;
      }

      .cls-148 {
        fill: #6e00ff;
      }

      .cls-149 {
        fill: #8900ff;
      }

      .cls-150 {
        fill: #9d00ff;
      }

      .cls-151 {
        fill: #6400ff;
      }

      .cls-152 {
        fill: #2900ff;
      }

      .cls-153 {
        fill: #5b00ff;
      }

      .cls-154 {
        fill: #5700ff;
      }

      .cls-155 {
        fill: #2c00ff;
      }

      .cls-156 {
        fill: #2e00ff;
      }

      .cls-157 {
        fill: #2a00ff;
      }

      .cls-158 {
        fill: #4900ff;
      }

      .cls-159 {
        fill: #2d00ff;
      }

      .cls-160 {
        fill: #3600ff;
      }

      .cls-161 {
        fill: #5e00ff;
      }

      .cls-162 {
        fill: #3000ff;
      }

      .cls-163 {
        fill: #3900ff;
      }

      .cls-164 {
        fill: #3200ff;
      }

      .cls-165 {
        fill: #3b00ff;
      }

      .cls-166 {
        fill: #3500ff;
      }

      .cls-167 {
        fill: #3e00ff;
      }

      .cls-168 {
        fill: #5c00ff;
      }

      .cls-169 {
        fill: #3a00ff;
      }

      .cls-170 {
        fill: #5900ff;
      }

      .cls-171 {
        fill: #5a00ff;
      }

      .cls-172 {
        fill: #3d00ff;
      }

      .cls-173 {
        fill: #8500ff;
      }

      .cls-174 {
        fill: #7200ff;
      }

      .cls-175 {
        fill: #4d00ff;
      }

      .cls-176 {
        fill: #6300ff;
      }

      .cls-177 {
        fill: #4b00ff;
      }

      .cls-178 {
        fill: #4a00ff;
      }

      .cls-179 {
        fill: #6200ff;
      }

      .cls-180 {
        fill: #4700ff;
      }

      .cls-181 {
        fill: #5f00ff;
      }

      .cls-182 {
        fill: #7600ff;
      }

      .cls-183 {
        fill: #7b00ff;
      }

      .cls-184 {
        fill: #7800ff;
      }

      .cls-185 {
        fill: #4e00ff;
      }

      .cls-186 {
        fill: #7a00ff;
      }

      .cls-187 {
        fill: #6000ff;
      }

      .cls-188 {
        fill: #5200ff;
      }

      .cls-189 {
        fill: #5100ff;
      }

      .cls-190 {
        fill: #70f;
      }

      .cls-191 {
        fill: #4f00ff;
      }

      .cls-192 {
        fill: #7c00ff;
      }

      .cls-193 {
        fill: #8400ff;
      }

      .cls-194 {
        fill: #2800ff;
      }

      .cls-195 {
        fill: #5300ff;
      }

      .cls-196 {
        fill: url(#_未命名的渐变_31);
      }

      .cls-197 {
        fill: url(#_未命名的渐变_13);
        opacity: .9;
      }

      .cls-198 {
        fill: url(#_未命名的渐变_31-5);
      }

      .cls-199 {
        fill: url(#_未命名的渐变_31-6);
      }

      .cls-200 {
        fill: url(#_未命名的渐变_31-2);
      }

      .cls-201 {
        fill: url(#_未命名的渐变_31-3);
      }

      .cls-202 {
        fill: url(#_未命名的渐变_31-4);
      }
    </style>
    <linearGradient id="_未命名的渐变_13" data-name="未命名的渐变 13" x1="81.83" y1="68.26" x2="83.01" y2="119.14" gradientUnits="userSpaceOnUse">
      <stop offset=".01" stop-color="#00e6ea" stop-opacity=".5"/>
      <stop offset="1" stop-color="#5e71ff" stop-opacity=".5"/>
    </linearGradient>
    <linearGradient id="_未命名的渐变_31" data-name="未命名的渐变 31" x1="133.28" y1="50.98" x2="90.47" y2="142.79" gradientUnits="userSpaceOnUse">
      <stop offset=".01" stop-color="#00e6ea"/>
      <stop offset="1" stop-color="#5e71ff"/>
    </linearGradient>
    <linearGradient id="_未命名的渐变_31-2" data-name="未命名的渐变 31" x1="29.32" y1="125.18" x2="82.35" y2="125.18" xlink:href="#_未命名的渐变_31"/>
    <linearGradient id="_未命名的渐变_31-3" data-name="未命名的渐变 31" x1="29.32" y1="74.87" x2="82.35" y2="74.87" xlink:href="#_未命名的渐变_31"/>
    <linearGradient id="_未命名的渐变_31-4" data-name="未命名的渐变 31" x1="29.32" y1="97.92" x2="82.35" y2="97.92" xlink:href="#_未命名的渐变_31"/>
    <linearGradient id="_未命名的渐变_31-5" data-name="未命名的渐变 31" x1="29.32" y1="139.47" x2="82.35" y2="139.47" xlink:href="#_未命名的渐变_31"/>
    <linearGradient id="_未命名的渐变_31-6" data-name="未命名的渐变 31" x1="22.55" y1="101.73" x2="116.9" y2="153.39" xlink:href="#_未命名的渐变_31"/>
  </defs>
  <g>
    <path d="m224.33,56.99c-5.03-4.57-12.47-6.89-22.1-6.89h-27.73v91.47h11.49v-42.4h16.24c9.96,0,17.48-2.34,22.35-6.95,4.87-4.61,7.34-10.49,7.34-17.47s-2.55-13.2-7.59-17.77Zm-38.35,2.46h16.24c11.92,0,17.96,5.15,17.96,15.32,0,4.81-1.46,8.56-4.35,11.16-2.9,2.6-7.47,3.92-13.61,3.92h-16.24v-30.39Z"/>
    <polygon points="254.68 129.46 241.35 95.75 230.11 95.75 248.95 141.02 239.46 163.76 250.1 163.76 278.51 95.75 267.85 95.75 254.68 129.46"/>
    <path d="m321.7,102.26c-1.46-1.88-3.37-3.5-5.73-4.83-3.12-1.77-6.78-2.67-10.9-2.67s-8.12,1.01-11.58,3c-3.46,1.99-6.21,4.84-8.19,8.45-1.97,3.6-2.97,7.84-2.97,12.59s1,8.94,2.96,12.62c1.97,3.7,4.72,6.61,8.18,8.66,3.46,2.05,7.35,3.09,11.58,3.09s7.77-.93,10.86-2.76c2.35-1.39,4.28-3.06,5.76-5v7.32c0,4.5-1.29,8.02-3.82,10.49-2.54,2.47-5.88,3.72-9.92,3.72-3.58,0-6.69-.82-9.22-2.43-2.5-1.59-4.18-3.72-4.97-6.32l-.15-.48h-8.92l.12.78c.76,5.05,3.28,9.09,7.49,12.01,4.17,2.89,9.43,4.36,15.65,4.36,4.56,0,8.62-.95,12.07-2.83,3.46-1.88,6.16-4.53,8.03-7.87,1.86-3.33,2.8-7.17,2.8-11.43v-47.23h-9.16v6.75Zm-2.04,7.97c1.35,2.44,2.04,5.35,2.04,8.65s-.69,6.23-2.04,8.69c-1.35,2.45-3.19,4.35-5.47,5.64-2.29,1.29-4.84,1.95-7.6,1.95s-5.29-.66-7.55-1.95c-2.25-1.29-4.08-3.19-5.42-5.64-1.35-2.46-2.04-5.42-2.04-8.78s.68-6.21,2.04-8.65c1.34-2.42,3.17-4.29,5.42-5.56,2.26-1.27,4.8-1.91,7.56-1.91s5.31.66,7.6,1.95c2.28,1.29,4.12,3.17,5.47,5.6Z"/>
    <path d="m407.13,96.95h0c-2.82-1.49-6.06-2.24-9.64-2.24s-7.03.91-10.01,2.71c-2.4,1.45-4.29,3.38-5.62,5.77-1.44-2.48-3.39-4.44-5.81-5.86-2.99-1.74-6.46-2.62-10.32-2.62-3.1,0-5.97.66-8.54,1.95-1.66.84-3.12,1.92-4.35,3.23v-4.38h-9.36v45.93h9.36v-25.21c0-4.31,1.05-7.62,3.11-9.84,2.07-2.23,4.8-3.32,8.34-3.32s6.07,1.03,8.06,3.16c1.98,2.12,2.98,5.27,2.98,9.36v25.85h9.27v-25.21c0-4.31,1.05-7.62,3.11-9.84,2.07-2.23,4.8-3.32,8.34-3.32s6.07,1.03,8.06,3.16c1.98,2.12,2.98,5.27,2.98,9.36v25.85h9.27v-26.89c0-4.21-.83-7.85-2.46-10.82-1.65-2.99-3.92-5.27-6.77-6.78Z"/>
    <path d="m442.31,66.08h-9.86v23.49h-10.03v8.23h10.03v28.9c0,5.06,1.27,8.78,3.78,11.03,2.48,2.24,6.22,3.38,11.11,3.38h8.34v-8.41h-6.94c-2.42,0-4.12-.45-5.05-1.32-.91-.87-1.38-2.44-1.38-4.68v-28.9h13.36v-8.23h-13.36v-23.49Z"/>
    <path d="m499.08,96c-3.63-1.98-7.74-2.98-12.22-2.98s-8.59,1-12.22,2.98c-3.64,1.99-6.55,4.87-8.66,8.58-2.1,3.7-3.17,8.01-3.17,12.81s1.04,9.19,3.08,12.89c2.05,3.71,4.92,6.61,8.53,8.62,3.6,2.01,7.67,3.03,12.1,3.03s8.62-1.02,12.3-3.02c3.69-2.01,6.66-4.91,8.83-8.61,2.16-3.7,3.26-8.04,3.26-12.9s-1.07-9.18-3.17-12.86c-2.11-3.68-5.02-6.55-8.66-8.53Zm2.62,21.39c0,3.56-.72,6.61-2.14,9.07-1.42,2.45-3.3,4.32-5.59,5.54-2.31,1.23-4.81,1.85-7.44,1.85s-5.07-.61-7.27-1.81c-2.18-1.19-3.94-3.03-5.25-5.48-1.32-2.46-1.99-5.55-1.99-9.17s.68-6.62,2.03-9.09c1.33-2.45,3.13-4.29,5.34-5.48,2.22-1.2,4.71-1.81,7.4-1.81s5.11.61,7.36,1.81c2.23,1.19,4.07,3.04,5.47,5.49,1.4,2.46,2.11,5.52,2.11,9.08Z"/>
    <path d="m552.55,96c-3.63-1.98-7.74-2.98-12.22-2.98s-8.59,1-12.22,2.98c-3.64,1.98-6.55,4.87-8.66,8.58-2.1,3.7-3.17,8.01-3.17,12.81s1.04,9.19,3.08,12.89c2.05,3.71,4.92,6.61,8.53,8.62,3.6,2.01,7.67,3.03,12.1,3.03s8.62-1.02,12.3-3.02c3.69-2.01,6.66-4.91,8.83-8.61,2.16-3.7,3.26-8.04,3.26-12.9s-1.07-9.18-3.17-12.86c-2.11-3.68-5.02-6.55-8.66-8.53Zm-19.7,6.82c2.22-1.2,4.71-1.81,7.4-1.81s5.11.61,7.36,1.81c2.23,1.19,4.07,3.04,5.47,5.49,1.4,2.46,2.11,5.52,2.11,9.08s-.72,6.61-2.14,9.07c-1.42,2.45-3.3,4.32-5.6,5.54-2.31,1.23-4.81,1.85-7.44,1.85s-5.07-.61-7.27-1.81c-2.18-1.19-3.95-3.03-5.25-5.48-1.32-2.46-1.99-5.55-1.99-9.17s.68-6.62,2.03-9.09c1.33-2.45,3.13-4.29,5.34-5.48Z"/>
    <rect x="572.29" y="57.06" width="9.86" height="84.04"/>
    <path d="m626.18,120.72c-1.58-1.81-3.5-3.18-5.7-4.09-2.13-.88-4.93-1.78-8.31-2.67-2.64-.72-4.74-1.37-6.23-1.95-1.42-.55-2.62-1.3-3.54-2.21-.87-.85-1.3-1.92-1.3-3.25,0-1.69.72-3.02,2.2-4.07,1.53-1.09,3.65-1.64,6.29-1.64,2.86,0,5.15.68,6.82,2.03,1.66,1.35,2.55,3.09,2.71,5.32l.04.63h9.15l-.04-.71c-.24-4.66-2.05-8.39-5.4-11.08-3.31-2.66-7.7-4.02-13.03-4.02-3.45,0-6.57.6-9.27,1.78-2.73,1.19-4.87,2.84-6.36,4.89-1.51,2.07-2.27,4.38-2.27,6.87,0,3.12.85,5.69,2.52,7.63,1.63,1.89,3.62,3.34,5.91,4.3,2.22.93,5.12,1.86,8.63,2.76,3.76.94,6.56,1.89,8.33,2.84,1.61.86,2.39,2.14,2.39,3.9s-.75,3.17-2.3,4.33c-1.59,1.19-3.81,1.8-6.62,1.8-3.04,0-5.51-.69-7.36-2.05-1.83-1.35-2.82-3.03-3.03-5.15l-.06-.61h-9.39l.04.72c.18,2.93,1.15,5.55,2.88,7.81,1.72,2.24,4.09,4.01,7.05,5.25,2.93,1.23,6.28,1.86,9.95,1.86,3.45,0,6.56-.6,9.23-1.78,2.7-1.19,4.83-2.87,6.32-4.98,1.51-2.12,2.27-4.55,2.27-7.21-.06-2.95-.91-5.38-2.52-7.24Z"/>
  </g>
  <g>
    <polygon class="cls-197" points="82.35 75.88 74.85 73.7 74.85 107.66 89.85 112.03 89.85 73.7 82.35 75.88"/>
    <path class="cls-196" d="m115.58,48.89l-33.23,9.67v17.32l7.5-2.18,22.26-6.48,8.27-2.41v73.31c0,5.52,4.48,10,10,10h5V57.5c0-5.52-4.48-10-10-10h0c-3.32,0-6.62.47-9.8,1.4Z"/>
    <polygon class="cls-1" points="72.2 114.71 44.32 106.6 44.32 130.81 72.2 114.71"/>
    <path class="cls-200" d="m44.32,130.81v-24.21l-15-4.36v35.89c0,5.52,4.48,10,10,10h5l-7.5-12.99,7.5-4.33Z"/>
    <path class="cls-201" d="m44.32,89.28v-24.46l8.27,2.41,22.26,6.48,7.5,2.18v-17.32l-33.23-9.67c-3.18-.93-6.48-1.4-9.8-1.4h0c-5.52,0-10,4.48-10,10v44.74l14.88-12.99.12.03Z"/>
    <polygon class="cls-202" points="44.32 89.28 44.2 89.24 29.32 102.24 44.32 106.6 44.32 89.28"/>
    <polygon class="cls-198" points="36.82 135.14 44.32 148.13 44.32 130.81 36.82 135.14"/>
    <path class="cls-199" d="m82.64,100.43l-7.79-2.27-21.37-6.22v17.32l18.71,5.44-27.88,16.09v17.32l30.53-17.63v17.63h15v-38.09c0-4.45-2.94-8.36-7.21-9.6Z"/>
  </g>
  <g>
    <path d="m495.78,172.77h-1.88v7.74h-1.49v-7.74h-1.16v-1.23h1.16v-.64c0-1,.26-1.74.78-2.2.52-.46,1.35-.7,2.5-.7v1.24c-.66,0-1.12.13-1.38.38-.27.26-.4.68-.4,1.27v.64h1.88v1.23Z"/>
    <path d="m500.13,171.8c.49-.28,1.08-.42,1.78-.42v1.54h-.39c-1.67,0-2.5.91-2.5,2.72v4.88h-1.49v-8.97h1.49v1.46c.26-.51.64-.91,1.12-1.2Z"/>
    <path d="m505.25,180.08c-.68-.38-1.22-.92-1.6-1.63-.39-.7-.58-1.52-.58-2.45s.2-1.73.6-2.43.94-1.24,1.63-1.62c.69-.38,1.46-.57,2.31-.57s1.62.19,2.31.57c.69.38,1.23.91,1.63,1.61.4.7.6,1.51.6,2.44s-.2,1.74-.61,2.45c-.41.7-.96,1.25-1.66,1.63s-1.47.57-2.32.57-1.6-.19-2.28-.57Zm3.79-1.11c.47-.25.85-.63,1.14-1.13s.43-1.11.43-1.83-.14-1.33-.42-1.83c-.28-.5-.66-.88-1.11-1.12-.46-.25-.96-.37-1.49-.37s-1.04.12-1.5.37c-.45.25-.82.62-1.09,1.12-.27.5-.41,1.11-.41,1.83s.13,1.35.4,1.85.62.88,1.07,1.12c.45.25.94.37,1.47.37s1.04-.12,1.51-.38Z"/>
    <path d="m526.75,171.81c.54.29.98.72,1.29,1.3.32.58.47,1.28.47,2.11v5.29h-1.47v-5.07c0-.89-.22-1.58-.66-2.05-.44-.47-1.04-.71-1.79-.71s-1.39.25-1.85.74c-.46.5-.69,1.21-.69,2.15v4.94h-1.47v-5.07c0-.89-.22-1.58-.66-2.05s-1.04-.71-1.79-.71-1.39.25-1.85.74c-.46.5-.69,1.21-.69,2.15v4.94h-1.49v-8.97h1.49v1.29c.29-.47.69-.83,1.19-1.08.5-.25,1.04-.38,1.64-.38.75,0,1.42.17,2,.51.58.34,1.01.83,1.29,1.49.25-.63.67-1.12,1.24-1.47s1.22-.52,1.93-.52,1.32.14,1.87.43Z"/>
    <path d="m568.57,169.1v1.21h-3.11v10.2h-1.49v-10.2h-3.13v-1.21h7.73Z"/>
    <path d="m576.69,171.81c.54.29.97.72,1.28,1.3.31.58.47,1.28.47,2.11v5.29h-1.47v-5.07c0-.89-.22-1.58-.67-2.05s-1.06-.71-1.83-.71-1.41.25-1.87.74-.7,1.21-.7,2.14v4.96h-1.49v-12.11h1.49v4.42c.29-.46.7-.81,1.22-1.06.52-.25,1.1-.38,1.74-.38.68,0,1.29.14,1.83.43Z"/>
    <path d="m580.92,169.79c-.2-.2-.29-.44-.29-.72s.1-.52.29-.72.44-.29.72-.29.5.1.7.29c.19.2.29.44.29.72s-.1.52-.29.72c-.19.2-.42.29-.7.29s-.52-.1-.72-.29Zm1.44,1.75v8.97h-1.49v-8.97h1.49Z"/>
    <path d="m591.92,172.37c.68.66,1.01,1.61,1.01,2.86v5.29h-1.47v-5.07c0-.89-.22-1.58-.67-2.05s-1.06-.71-1.83-.71-1.41.25-1.87.74-.7,1.21-.7,2.14v4.96h-1.49v-8.97h1.49v1.28c.29-.46.7-.81,1.2-1.06.51-.25,1.07-.38,1.68-.38,1.09,0,1.97.33,2.65.99Z"/>
    <path d="m600.38,180.51l-3.52-3.96v3.96h-1.49v-12.11h1.49v7.12l3.45-3.98h2.08l-4.22,4.47,4.24,4.5h-2.03Z"/>
    <path d="m605.3,168.4v12.11h-1.49v-12.11h1.49Z"/>
    <path d="m607.83,173.58c.37-.69.88-1.23,1.53-1.61.65-.38,1.37-.57,2.17-.57s1.47.17,2.05.51c.58.34,1.01.76,1.29,1.28v-1.64h1.51v8.97h-1.51v-1.67c-.29.52-.73.96-1.32,1.3-.58.34-1.26.52-2.04.52s-1.52-.2-2.16-.59c-.64-.39-1.15-.94-1.52-1.65-.37-.71-.56-1.52-.56-2.42s.19-1.72.56-2.41Zm6.63.66c-.27-.5-.64-.89-1.11-1.15s-.97-.4-1.53-.4-1.06.13-1.52.39c-.46.26-.82.64-1.1,1.15-.27.5-.41,1.09-.41,1.77s.14,1.29.41,1.79c.27.51.64.9,1.1,1.16.46.27.97.4,1.52.4s1.07-.13,1.53-.4c.46-.27.83-.65,1.11-1.16.27-.51.41-1.1.41-1.78s-.14-1.27-.41-1.77Z"/>
    <path d="m621.73,171.9c.59-.34,1.26-.51,2.01-.51.81,0,1.53.19,2.18.57.64.38,1.15.92,1.52,1.61.37.69.56,1.5.56,2.41s-.19,1.71-.56,2.42c-.37.71-.88,1.26-1.53,1.65-.65.39-1.37.59-2.17.59s-1.45-.17-2.04-.51c-.58-.34-1.02-.77-1.32-1.29v1.65h-1.49v-12.11h1.49v4.81c.3-.54.75-.97,1.34-1.31Zm4.34,2.32c-.27-.5-.64-.88-1.11-1.15-.46-.26-.97-.39-1.53-.39s-1.05.13-1.51.4-.83.65-1.11,1.16-.42,1.09-.42,1.76.14,1.27.42,1.78c.28.51.65.9,1.11,1.16.46.27.97.4,1.51.4s1.07-.13,1.53-.4c.46-.27.83-.65,1.11-1.16.27-.51.41-1.1.41-1.79s-.14-1.27-.41-1.77Z"/>
  </g>
  <g>
    <rect class="cls-13" x="550.87" y="179.69" width="2.99" height="2.99"/>
    <rect class="cls-7" x="550.78" y="179.52" width="2.99" height="2.99"/>
    <rect class="cls-8" x="550.69" y="179.35" width="2.99" height="2.99"/>
    <rect class="cls-6" x="550.61" y="179.18" width="2.99" height="2.99"/>
    <rect class="cls-9" x="550.52" y="179.01" width="2.99" height="2.99"/>
    <rect class="cls-124" x="550.44" y="178.84" width="2.99" height="2.99"/>
    <rect class="cls-122" x="550.35" y="178.67" width="2.99" height="2.99"/>
    <rect class="cls-121" x="550.27" y="178.49" width="2.99" height="2.99"/>
    <rect class="cls-117" x="550.18" y="178.32" width="2.99" height="2.99"/>
    <rect class="cls-116" x="550.1" y="178.15" width="2.99" height="2.99"/>
    <rect class="cls-126" x="550.01" y="177.98" width="2.99" height="2.99"/>
    <rect class="cls-129" x="549.93" y="177.81" width="2.99" height="2.99"/>
    <rect class="cls-128" x="549.84" y="177.64" width="2.99" height="2.99"/>
    <rect class="cls-107" x="549.75" y="177.47" width="2.99" height="2.99"/>
    <rect class="cls-106" x="549.67" y="177.3" width="2.99" height="2.99"/>
    <rect class="cls-105" x="549.58" y="177.12" width="2.99" height="2.99"/>
    <rect class="cls-123" x="549.5" y="176.95" width="2.99" height="2.99"/>
    <rect class="cls-125" x="549.41" y="176.78" width="2.99" height="2.99"/>
    <rect class="cls-110" x="549.33" y="176.61" width="2.99" height="2.99"/>
    <rect class="cls-109" x="549.24" y="176.44" width="2.99" height="2.99"/>
    <rect class="cls-127" x="549.16" y="176.27" width="2.99" height="2.99"/>
    <rect class="cls-134" x="549.07" y="176.1" width="2.99" height="2.99"/>
    <rect class="cls-136" x="548.98" y="175.93" width="2.99" height="2.99"/>
    <rect class="cls-130" x="548.9" y="175.76" width="2.99" height="2.99"/>
    <rect class="cls-113" x="548.81" y="175.59" width="2.99" height="2.99"/>
    <rect class="cls-112" x="548.73" y="175.41" width="2.99" height="2.99"/>
    <rect class="cls-108" x="548.64" y="175.24" width="2.99" height="2.99"/>
    <rect class="cls-115" x="548.56" y="175.07" width="2.99" height="2.99"/>
    <rect class="cls-114" x="548.47" y="174.9" width="2.99" height="2.99"/>
    <rect class="cls-111" x="548.39" y="174.73" width="2.99" height="2.99"/>
    <rect class="cls-194" x="548.3" y="174.56" width="2.99" height="2.99"/>
    <rect class="cls-152" x="548.21" y="174.39" width="2.99" height="2.99"/>
    <rect class="cls-157" x="548.13" y="174.22" width="2.99" height="2.99"/>
    <rect class="cls-155" x="548.04" y="174.04" width="2.99" height="2.99"/>
    <rect class="cls-159" x="547.96" y="173.87" width="2.99" height="2.99"/>
    <rect class="cls-156" x="547.87" y="173.7" width="2.99" height="2.99"/>
    <rect class="cls-162" x="547.79" y="173.53" width="2.99" height="2.99"/>
    <rect class="cls-61" x="547.7" y="173.36" width="2.99" height="2.99"/>
    <rect class="cls-164" x="547.61" y="173.19" width="2.99" height="2.99"/>
    <rect class="cls-59" x="547.53" y="173.02" width="2.99" height="2.99"/>
    <rect class="cls-166" x="547.44" y="172.85" width="2.99" height="2.99"/>
    <rect class="cls-160" x="547.36" y="172.68" width="2.99" height="2.99"/>
    <rect class="cls-131" x="547.27" y="172.5" width="2.99" height="2.99"/>
    <rect class="cls-163" x="547.19" y="172.33" width="2.99" height="2.99"/>
    <rect class="cls-169" x="547.1" y="172.16" width="2.99" height="2.99"/>
    <rect class="cls-165" x="547.02" y="171.99" width="2.99" height="2.99"/>
    <rect class="cls-172" x="546.93" y="171.82" width="2.99" height="2.99"/>
    <rect class="cls-167" x="546.85" y="171.65" width="2.99" height="2.99"/>
    <rect class="cls-135" x="546.76" y="171.48" width="2.99" height="2.99"/>
    <rect class="cls-119" x="546.67" y="171.31" width="2.99" height="2.99"/>
    <rect class="cls-120" x="546.59" y="171.14" width="2.99" height="2.99"/>
    <rect class="cls-118" x="546.5" y="170.96" width="2.99" height="2.99"/>
    <rect class="cls-132" x="546.42" y="170.79" width="2.99" height="2.99"/>
    <rect class="cls-133" x="546.33" y="170.62" width="2.99" height="2.99"/>
    <rect class="cls-180" x="546.25" y="170.45" width="2.99" height="2.99"/>
    <rect class="cls-158" x="546.16" y="170.28" width="2.99" height="2.99"/>
    <rect class="cls-178" x="546.08" y="170.11" width="2.99" height="2.99"/>
    <rect class="cls-177" x="545.99" y="169.94" width="2.99" height="2.99"/>
    <rect class="cls-175" x="545.9" y="169.77" width="2.99" height="2.99"/>
    <rect class="cls-185" x="545.82" y="169.6" width="2.99" height="2.99"/>
    <rect class="cls-191" x="545.73" y="169.42" width="2.99" height="2.99"/>
    <rect class="cls-189" x="545.65" y="169.25" width="2.99" height="2.99"/>
    <rect class="cls-188" x="545.56" y="169.08" width="2.99" height="2.99"/>
    <rect class="cls-195" x="545.48" y="168.91" width="2.99" height="2.99"/>
    <rect class="cls-145" x="545.39" y="168.74" width="2.99" height="2.99"/>
    <rect class="cls-144" x="545.3" y="168.57" width="2.99" height="2.99"/>
    <rect class="cls-154" x="545.22" y="168.4" width="2.99" height="2.99"/>
    <rect class="cls-170" x="545.13" y="168.23" width="2.99" height="2.99"/>
    <rect class="cls-171" x="545.05" y="168.06" width="2.99" height="2.99"/>
    <rect class="cls-153" x="544.96" y="167.88" width="2.99" height="2.99"/>
    <rect class="cls-168" x="544.88" y="167.71" width="2.99" height="2.99"/>
    <rect class="cls-161" x="544.79" y="167.54" width="2.99" height="2.99"/>
    <rect class="cls-181" x="544.71" y="167.37" width="2.99" height="2.99"/>
    <rect class="cls-187" x="544.62" y="167.2" width="2.99" height="2.99"/>
    <rect class="cls-179" x="544.53" y="167.03" width="2.99" height="2.99"/>
    <rect class="cls-176" x="544.45" y="166.86" width="2.99" height="2.99"/>
    <rect class="cls-151" x="544.36" y="166.69" width="2.99" height="2.99"/>
    <rect class="cls-32" x="544.28" y="166.51" width="2.99" height="2.99"/>
    <rect class="cls-58" x="544.19" y="166.34" width="2.99" height="2.99"/>
    <rect class="cls-11" x="544.11" y="166.48" width="2.99" height="2.99"/>
    <rect class="cls-10" x="544.02" y="166.65" width="2.99" height="2.99"/>
    <rect class="cls-12" x="543.94" y="166.83" width="2.99" height="2.99"/>
    <rect class="cls-39" x="543.85" y="167" width="2.99" height="2.99"/>
    <rect class="cls-148" x="543.77" y="167.17" width="2.99" height="2.99"/>
    <rect class="cls-138" x="543.68" y="167.34" width="2.99" height="2.99"/>
    <rect class="cls-142" x="543.59" y="167.51" width="2.99" height="2.99"/>
    <rect class="cls-174" x="543.51" y="167.68" width="2.99" height="2.99"/>
    <rect class="cls-141" x="543.42" y="167.85" width="2.99" height="2.99"/>
    <rect class="cls-35" x="543.34" y="168.02" width="2.99" height="2.99"/>
    <rect class="cls-182" x="543.25" y="168.19" width="2.99" height="2.99"/>
    <rect class="cls-190" x="543.17" y="168.37" width="2.99" height="2.99"/>
    <rect class="cls-184" x="543.08" y="168.54" width="2.99" height="2.99"/>
    <rect class="cls-186" x="542.99" y="168.71" width="2.99" height="2.99"/>
    <rect class="cls-183" x="542.91" y="168.88" width="2.99" height="2.99"/>
    <rect class="cls-192" x="542.82" y="169.05" width="2.99" height="2.99"/>
    <rect class="cls-37" x="542.74" y="169.22" width="2.99" height="2.99"/>
    <rect class="cls-34" x="542.65" y="169.39" width="2.99" height="2.99"/>
    <rect class="cls-30" x="542.57" y="169.56" width="2.99" height="2.99"/>
    <rect class="cls-31" x="542.48" y="169.73" width="2.99" height="2.99"/>
    <rect class="cls-33" x="542.4" y="169.91" width="2.99" height="2.99"/>
    <rect class="cls-193" x="542.31" y="170.08" width="2.99" height="2.99"/>
    <rect class="cls-173" x="542.22" y="170.25" width="2.99" height="2.99"/>
    <rect class="cls-43" x="542.14" y="170.42" width="2.99" height="2.99"/>
    <rect class="cls-42" x="542.05" y="170.59" width="2.99" height="2.99"/>
    <rect class="cls-149" x="541.97" y="170.76" width="2.99" height="2.99"/>
    <rect class="cls-147" x="541.88" y="170.93" width="2.99" height="2.99"/>
    <rect class="cls-45" x="541.8" y="171.1" width="2.99" height="2.99"/>
    <rect class="cls-40" x="541.71" y="171.27" width="2.99" height="2.99"/>
    <rect class="cls-50" x="541.63" y="171.45" width="2.99" height="2.99"/>
    <rect class="cls-53" x="541.54" y="171.62" width="2.99" height="2.99"/>
    <rect class="cls-63" x="541.45" y="171.79" width="2.99" height="2.99"/>
    <rect class="cls-54" x="541.37" y="171.96" width="2.99" height="2.99"/>
    <rect class="cls-44" x="541.28" y="172.13" width="2.99" height="2.99"/>
    <rect class="cls-51" x="541.2" y="172.3" width="2.99" height="2.99"/>
    <rect class="cls-140" x="541.11" y="172.47" width="2.99" height="2.99"/>
    <rect class="cls-143" x="541.03" y="172.64" width="2.99" height="2.99"/>
    <rect class="cls-38" x="540.94" y="172.81" width="2.99" height="2.99"/>
    <rect class="cls-36" x="540.86" y="172.99" width="2.99" height="2.99"/>
    <rect class="cls-146" x="540.77" y="173.16" width="2.99" height="2.99"/>
    <rect class="cls-150" x="540.69" y="173.33" width="2.99" height="2.99"/>
    <rect class="cls-48" x="540.6" y="173.5" width="2.99" height="2.99"/>
    <rect class="cls-47" x="540.51" y="173.67" width="2.99" height="2.99"/>
    <rect class="cls-41" x="540.43" y="173.84" width="2.99" height="2.99"/>
    <rect class="cls-49" x="540.34" y="174.01" width="2.99" height="2.99"/>
    <rect class="cls-139" x="540.26" y="174.18" width="2.99" height="2.99"/>
    <rect class="cls-137" x="540.17" y="174.35" width="2.99" height="2.99"/>
    <rect class="cls-78" x="540.09" y="174.53" width="2.99" height="2.99"/>
    <rect class="cls-79" x="540" y="174.7" width="2.99" height="2.99"/>
    <rect class="cls-68" x="539.91" y="174.87" width="2.99" height="2.99"/>
    <rect class="cls-69" x="539.83" y="175.04" width="2.99" height="2.99"/>
    <rect class="cls-82" x="539.74" y="175.21" width="2.99" height="2.99"/>
    <rect class="cls-71" x="539.66" y="175.38" width="2.99" height="2.99"/>
    <rect class="cls-97" x="539.57" y="175.55" width="2.99" height="2.99"/>
    <rect class="cls-67" x="539.49" y="175.72" width="2.99" height="2.99"/>
    <rect class="cls-72" x="539.4" y="175.9" width="2.99" height="2.99"/>
    <rect class="cls-73" x="539.31" y="176.07" width="2.99" height="2.99"/>
    <rect class="cls-70" x="539.23" y="176.24" width="2.99" height="2.99"/>
    <rect class="cls-75" x="539.14" y="176.41" width="2.99" height="2.99"/>
    <rect class="cls-56" x="539.06" y="176.58" width="2.99" height="2.99"/>
    <rect class="cls-46" x="538.97" y="176.75" width="2.99" height="2.99"/>
    <rect class="cls-57" x="538.89" y="176.92" width="2.99" height="2.99"/>
    <rect class="cls-64" x="538.8" y="177.09" width="2.99" height="2.99"/>
    <rect class="cls-62" x="538.72" y="177.26" width="2.99" height="2.99"/>
    <rect class="cls-60" x="538.63" y="177.43" width="2.99" height="2.99"/>
    <rect class="cls-76" x="538.55" y="177.61" width="2.99" height="2.99"/>
    <rect class="cls-77" x="538.46" y="177.78" width="2.99" height="2.99"/>
    <rect class="cls-80" x="538.37" y="177.95" width="2.99" height="2.99"/>
    <rect class="cls-81" x="538.29" y="178.12" width="2.99" height="2.99"/>
    <rect class="cls-55" x="538.2" y="178.29" width="2.99" height="2.99"/>
    <rect class="cls-52" x="538.12" y="178.46" width="2.99" height="2.99"/>
    <rect class="cls-90" x="538.03" y="178.63" width="2.99" height="2.99"/>
    <rect class="cls-91" x="537.95" y="178.8" width="2.99" height="2.99"/>
    <rect class="cls-92" x="537.86" y="178.98" width="2.99" height="2.99"/>
    <rect class="cls-102" x="537.78" y="179.15" width="2.99" height="2.99"/>
    <rect class="cls-101" x="537.69" y="179.32" width="2.99" height="2.99"/>
    <rect class="cls-84" x="537.6" y="179.49" width="2.99" height="2.99"/>
    <rect class="cls-87" x="537.52" y="179.66" width="2.99" height="2.99"/>
    <rect class="cls-83" x="537.65" y="179.64" width="2.99" height="2.99"/>
    <rect class="cls-65" x="537.83" y="179.58" width="2.99" height="2.99"/>
    <rect class="cls-66" x="538.01" y="179.52" width="2.99" height="2.99"/>
    <rect class="cls-85" x="538.2" y="179.46" width="2.99" height="2.99"/>
    <rect class="cls-88" x="538.38" y="179.4" width="2.99" height="2.99"/>
    <rect class="cls-98" x="538.56" y="179.34" width="2.99" height="2.99"/>
    <rect class="cls-93" x="538.74" y="179.28" width="2.99" height="2.99"/>
    <rect class="cls-104" x="538.92" y="179.22" width="2.99" height="2.99"/>
    <rect class="cls-96" x="539.1" y="179.16" width="2.99" height="2.99"/>
    <rect class="cls-74" x="539.28" y="179.1" width="2.99" height="2.99"/>
    <rect class="cls-95" x="539.47" y="179.04" width="2.99" height="2.99"/>
    <rect class="cls-99" x="539.65" y="178.98" width="2.99" height="2.99"/>
    <rect class="cls-94" x="539.83" y="178.92" width="2.99" height="2.99"/>
    <rect class="cls-86" x="540.01" y="178.86" width="2.99" height="2.99"/>
    <rect class="cls-100" x="540.19" y="178.8" width="2.99" height="2.99"/>
    <rect class="cls-103" x="540.37" y="178.73" width="2.99" height="2.99"/>
    <rect class="cls-89" x="540.56" y="178.68" width="2.99" height="2.99"/>
    <rect class="cls-23" x="540.74" y="178.61" width="2.99" height="2.99"/>
    <rect class="cls-22" x="540.92" y="178.55" width="2.99" height="2.99"/>
    <rect class="cls-27" x="541.1" y="178.49" width="2.99" height="2.99"/>
    <rect class="cls-21" x="541.28" y="178.43" width="2.99" height="2.99"/>
    <rect class="cls-20" x="541.46" y="178.37" width="2.99" height="2.99"/>
    <rect class="cls-17" x="541.64" y="178.31" width="2.99" height="2.99"/>
    <rect class="cls-24" x="541.82" y="178.25" width="2.99" height="2.99"/>
    <rect class="cls-14" x="542.01" y="178.19" width="2.99" height="2.99"/>
    <rect class="cls-28" x="542.19" y="178.13" width="2.99" height="2.99"/>
    <rect class="cls-25" x="542.37" y="178.07" width="2.99" height="2.99"/>
    <rect class="cls-29" x="542.55" y="178.01" width="2.99" height="2.99"/>
    <rect class="cls-15" x="542.73" y="177.95" width="2.99" height="2.99"/>
    <rect class="cls-18" x="542.91" y="177.89" width="2.99" height="2.99"/>
    <rect class="cls-2" x="543.1" y="177.83" width="2.99" height="2.99"/>
    <rect class="cls-16" x="543.28" y="177.77" width="2.99" height="2.99"/>
    <rect class="cls-5" x="543.46" y="177.71" width="2.99" height="2.99"/>
    <rect class="cls-4" x="543.64" y="177.65" width="2.99" height="2.99"/>
    <rect class="cls-3" x="543.82" y="177.59" width="2.99" height="2.99"/>
    <rect class="cls-19" x="544" y="177.52" width="2.99" height="2.99"/>
    <rect class="cls-26" x="544.18" y="177.47" width="2.99" height="2.99"/>
  </g>
</svg>