<svg width="150" height="150" xmlns="http://www.w3.org/2000/svg" xmlns:xlink="http://www.w3.org/1999/xlink" data-name="图层 1">
 <defs>
  <linearGradient y2="1.18549" x2="0.544" y1="-0.14193" x1="0.46533" data-name="未命名的渐变 13" id="_未命名的渐变_13">
   <stop stop-opacity="0.5" stop-color="#00e6ea" offset="0.01"/>
   <stop stop-opacity="0.5" stop-color="#5e71ff" offset="1"/>
  </linearGradient>
  <linearGradient y2="0.94703" x2="0.15312" y1="0.03459" x1="0.9604" data-name="未命名的渐变 31" id="_未命名的渐变_31">
   <stop stop-color="#00e6ea" offset="0.01"/>
   <stop stop-color="#5e71ff" offset="1"/>
  </linearGradient>
  <linearGradient xlink:href="#_未命名的渐变_31" y2="125.18" x2="82.35" y1="125.18" x1="29.32" data-name="未命名的渐变 31" id="_未命名的渐变_31-2"/>
  <linearGradient xlink:href="#_未命名的渐变_31" y2="74.87" x2="82.35" y1="74.87" x1="29.32" data-name="未命名的渐变 31" id="_未命名的渐变_31-3"/>
  <linearGradient xlink:href="#_未命名的渐变_31" y2="97.92" x2="82.35" y1="97.92" x1="29.32" data-name="未命名的渐变 31" id="_未命名的渐变_31-4"/>
  <linearGradient xlink:href="#_未命名的渐变_31" y2="139.47" x2="82.35" y1="139.47" x1="29.32" data-name="未命名的渐变 31" id="_未命名的渐变_31-5"/>
  <linearGradient xlink:href="#_未命名的渐变_31" y2="153.39" x2="116.9" y1="101.73" x1="22.55" data-name="未命名的渐变 31" id="_未命名的渐变_31-6"/>
 </defs>
 <g>
  <title>Layer 1</title>
  <g id="svg_11">
   <polygon id="svg_12" opacity="0.9" fill="url(#_未命名的渐变_13)" points="75.3499984741211,54.87999725341797 67.8499984741211,52.69999694824219 67.8499984741211,86.66000366210938 82.8499984741211,91.02999877929688 82.8499984741211,52.69999694824219 75.3499984741211,54.87999725341797 " class="cls-197"/>
   <path id="svg_13" fill="url(#_未命名的渐变_31)" d="m108.58,27.89l-33.23,9.67l0,17.32l7.5,-2.18l22.26,-6.48l8.27,-2.41l0,73.31c0,5.52 4.48,10 10,10l5,0l0,-90.62c0,-5.52 -4.48,-10 -10,-10l0,0c-3.32,0 -6.62,0.47 -9.8,1.4l0,-0.01z" class="cls-196"/>
   <polygon id="svg_14" fill="none" points="65.19999694824219,93.70999908447266 37.31999969482422,85.5999984741211 37.31999969482422,109.80999755859375 65.19999694824219,93.70999908447266 " class="cls-1"/>
   <path id="svg_15" fill="url(#_未命名的渐变_31-2)" d="m37.32,109.81l0,-24.21l-15,-4.36l0,35.89c0,5.52 4.48,10 10,10l5,0l-7.5,-12.99l7.5,-4.33z" class="cls-200"/>
   <path id="svg_16" fill="url(#_未命名的渐变_31-3)" d="m37.32,68.28l0,-24.46l8.27,2.41l22.26,6.48l7.5,2.18l0,-17.32l-33.23,-9.67c-3.18,-0.93 -6.48,-1.4 -9.8,-1.4l0,0c-5.52,0 -10,4.48 -10,10l0,44.74l14.88,-12.99l0.12,0.03z" class="cls-201"/>
   <polygon id="svg_17" fill="url(#_未命名的渐变_31-4)" points="37.31999969482422,68.27999877929688 37.19999694824219,68.23999786376953 22.31999969482422,81.23999786376953 37.31999969482422,85.5999984741211 37.31999969482422,68.27999877929688 " class="cls-202"/>
   <polygon id="svg_18" fill="url(#_未命名的渐变_31-5)" points="29.81999969482422,114.13999938964844 37.31999969482422,127.1300048828125 37.31999969482422,109.80999755859375 29.81999969482422,114.13999938964844 " class="cls-198"/>
   <path id="svg_19" fill="url(#_未命名的渐变_31-6)" d="m75.64,79.43l-7.79,-2.27l-21.37,-6.22l0,17.32l18.71,5.44l-27.88,16.09l0,17.32l30.53,-17.63l0,17.63l15,0l0,-38.09c0,-4.45 -2.94,-8.36 -7.21,-9.6l0.01,0.01z" class="cls-199"/>
  </g>
 </g>
</svg>